# xmcd
#
# Track frame offsets:
#	150
#	15242
#	33468
#	54305
#	71177
#	93735
#	113915
#	132102
#	152090
#	168306
#	184628
#	200792
#	221758
#
# Disc length: 3289 seconds
#
# Revision: 0
# Processed by: cddbd v1.5.2PL0 Copyright (c) Steve Scherf et al.
# Submitted via: audiograbber 1.83.01
#
DISCID=b60cd70d
DTITLE=Anastacia - Not That Kind
DYEAR=2001
DGENRE=Pop
TTITLE0=Not That Kind
TTITLE1=I'm Outta Love
TTITLE2=Cowboys and Kisses
TTITLE3=Why'd You Lie To Me
TTITLE4=Who's Gonna Stop The Rain
TTITLE5=I Ask Of You
TTITLE6=Don'tcha Wanna
TTITLE7=Late Last Night
TTITLE8=Made For Lovin' You
TTITLE9=Black Roses
TTITLE10=Yo Trippin'
TTITLE11=One More Chance
TTITLE12=Same Old Story
EXTD=ID3G:   0 YEAR: 2000
EXTT0=
EXTT1=
EXTT2=
EXTT3=
EXTT4=
EXTT5=
EXTT6=
EXTT7=
EXTT8=
EXTT9=
EXTT10=
EXTT11=
EXTT12=
PLAYORDER=
